<svg xmlns="http://www.w3.org/2000/svg" xmlns:xlink="http://www.w3.org/1999/xlink" width="1518.968" height="1006.01" viewBox="0 0 1518.968 1006.01"><defs><style>.a{fill:url(#a);}.b{fill:#fff;}.c{filter:url(#d);}.d{filter:url(#b);}</style><linearGradient id="a" x1="-0.201" y1="0.815" x2="1.096" y2="0.824" gradientUnits="objectBoundingBox"><stop offset="0" stop-color="#0fc"/><stop offset="1" stop-color="#06ff6a"/></linearGradient><filter id="b" x="0" y="69.054" width="1498.713" height="936.956" filterUnits="userSpaceOnUse"><feOffset dy="20" input="SourceAlpha"/><feGaussianBlur stdDeviation="3" result="c"/><feFlood flood-opacity="0.161"/><feComposite operator="in" in2="c"/><feComposite in="SourceGraphic"/></filter><filter id="d" x="2.635" y="0" width="1516.333" height="932.947" filterUnits="userSpaceOnUse"><feOffset dy="20" input="SourceAlpha"/><feGaussianBlur stdDeviation="3" result="e"/><feFlood flood-opacity="0.161"/><feComposite operator="in" in2="e"/><feComposite in="SourceGraphic"/></filter></defs><g transform="translate(101.678 55.359)"><g class="d" transform="matrix(1, 0, 0, 1, -101.68, -55.36)"><path class="a" d="M3093.947,825.588c-62.6-72.891,591.859-195.694,1045.417-84.4s430.93-117.352,430.93-117.352L4497.238-78.359H4083.253L3136.563-46.711S3156.552,898.479,3093.947,825.588Z" transform="translate(-3080.77 147.41)"/></g><g class="c" transform="matrix(1, 0, 0, 1, -101.68, -55.36)"><path class="b" d="M3094.346,825.588S3634.98,671.3,4116.917,748.446s475.758-124.614,475.758-124.614L4518.531-78.359h-420.15L3137.6-46.711Z" transform="translate(-3082.71 78.36)"/></g></g></svg>